# xmcd
#
# Track frame offsets: 
#        150
#        18347
#        34575
#        51243
#        71041
#        90993
#        112383
#        131603
#        153385
#        173242
#        189535
#        205447
#        221301
#        240109
#
# Disc length: 3471 seconds
#
# Revision: 0
# Processed by: cddbd v1.5.2PL0 Copyright (c) Steve Scherf et al.
# Submitted via: ExactAudioCopy v0.99pb4
#
DISCID=be0d8d0e
DTITLE=Enrique Iglesias - Rhythm Divine
DYEAR=1999
DGENRE=Latin
TTITLE0=Rhythm Divine
TTITLE1=Be With You
TTITLE2=I Have Always Loved You
TTITLE3=Sad Eyes
TTITLE4=I'm Your Man
TTITLE5=Oyeme
TTITLE6=Could I Have This Kiss Forever
TTITLE7=You're My No 1
TTITLE8=Alabao
TTITLE9=Bailamos
TTITLE10=Ritmo total
TTITLE11=Mas Es Amar
TTITLE12=No Puedo Mas Sin Ti
TTITLE13=Rhythm Divine (Remix)
EXTD=
EXTT0=
EXTT1=
EXTT2=
EXTT3=
EXTT4=
EXTT5=
EXTT6=
EXTT7=
EXTT8=
EXTT9=
EXTT10=
EXTT11=
EXTT12=
EXTT13=
PLAYORDER=
